<svg xmlns="http://www.w3.org/2000/svg" width="360px" height="75px" viewBox="0 0 120 25">
<defs>
<symbol id="glyph10" viewBox="0 0 6 13" width="6" height="13">
<path d="M0.081 2.422h5.853v7.953h-5.853v-7.953Zm5.306 7.406v-6.844h-4.744v6.844h4.744ZM2.359 7.438v-0.172l0.563-0.563l0.188 0.172l-0.313 0.313h0.938v-1.891h0.313v2.219h-1.25l0.313 0.313l-0.188 0.172l-0.563-0.563Z"/>
</symbol>
<symbol id="glyph32" viewBox="0 0 6 13" width="6" height="13">
<path d="M0.081 2.422h5.853v7.953h-5.853v-7.953Zm5.306 7.406v-6.844h-4.744v6.844h4.744ZM1.891 9.063q-0.203 0,-0.422-0.047q-0.203-0.047,-0.406-0.141l0-0.422q0.219 0.141,0.422 0.219q0.203 0.063,0.406 0.063q0.297 0,0.469-0.125q0.156-0.141,0.156-0.391q0-0.203,-0.109-0.328q-0.063-0.063,-0.156-0.094q-0.094-0.047,-0.25-0.078l-0.203-0.047q-0.203-0.047,-0.359-0.109q-0.141-0.078,-0.234-0.172q-0.188-0.188,-0.188-0.5q0-0.391,0.266-0.625q0.125-0.109,0.297-0.172q0.188-0.063,0.406-0.063q0.172 0,0.359 0.031q0.078 0.031,0.172 0.063q0.109 0.016,0.219 0.063v0.391q-0.094-0.063,-0.188-0.094q-0.094-0.047,-0.172-0.078q-0.188-0.063,-0.375-0.063q-0.281 0,-0.438 0.141q-0.156 0.125,-0.156 0.359q0 0.094,0.016 0.172q0.031 0.063,0.078 0.109q0.125 0.109,0.406 0.172l0.203 0.047q0.406 0.094,0.594 0.297q0.188 0.203,0.188 0.563q0 0.219,-0.063 0.375q-0.063 0.156,-0.188 0.266q-0.25 0.219,-0.75 0.219Zm1.203-2.984l0.844 0q0.484 0,0.734 0.219q0.141 0.125,0.203 0.297q0.063 0.156,0.063 0.359q0 0.438,-0.25 0.656q-0.25 0.219,-0.75 0.219l-0.453 0v1.172h-0.391l0-2.922Zm0.844 1.422q0.141 0,0.25-0.031q0.109-0.047,0.172-0.109q0.156-0.141,0.156-0.406q0-0.266,-0.156-0.406q-0.141-0.141,-0.422-0.141l-0.453 0v1.094l0.453 0Z"/>
</symbol>
<symbol id="glyph68" viewBox="0 0 6 13" width="6" height="13">
<path d="M0.672 2.703h1.484q1.656 0,2.453 0.891q0.797 0.891,0.797 2.766q0 1.859,-0.797 2.75q-0.797 0.891,-2.453 0.891h-1.484v-7.297Zm1.453 6.484q1.25 0,1.75-0.609q0.484-0.609,0.484-2.219q0-1.625,-0.484-2.234q-0.25-0.313,-0.703-0.453q-0.438-0.156,-1.047-0.156h-0.469v5.672h0.469Z"/>
</symbol>
<symbol id="glyph69" viewBox="0 0 6 13" width="6" height="13">
<path d="M0.969 2.703h4.313v0.844h-3.328v2.156h3.188v0.828h-3.188v2.641h3.422v0.828h-4.406v-7.297Z"/>
</symbol>
<symbol id="glyph77" viewBox="0 0 6 13" width="6" height="13">
<path d="M0.422 2.703h1.313l1.266 3.719l1.266-3.719h1.328v7.297h-0.922v-6.438l-1.297 3.844h-0.75l-1.297-3.844v6.438h-0.906v-7.297Z"/>
</symbol>
<symbol id="glyph78" viewBox="0 0 6 13" width="6" height="13">
<path d="M0.672 2.703h1.25l2.469 6v-6h0.953v7.297h-1.25l-2.469-6v6h-0.953v-7.297Z"/>
</symbol>
<symbol id="glyph79" viewBox="0 0 6 13" width="6" height="13">
<path d="M3.016 10.141q-1.25 0,-1.844-0.938q-0.594-0.922,-0.594-2.844q0-1.922,0.594-2.844q0.609-0.938,1.844-0.938q0.594 0,1.047 0.234q0.469 0.219,0.781 0.703q0.609 0.938,0.609 2.844q0 1.906,-0.609 2.844q-0.313 0.484,-0.781 0.719q-0.453 0.219,-1.047 0.219Zm0-0.797q0.75 0,1.078-0.688q0.328-0.672,0.328-2.297q0-1.625,-0.328-2.297q-0.328-0.688,-1.078-0.688q-0.75 0,-1.078 0.688q-0.328 0.703,-0.328 2.297q0 1.594,0.328 2.297q0.328 0.688,1.078 0.688Z"/>
</symbol>
<symbol id="glyph82" viewBox="0 0 6 13" width="6" height="13">
<path d="M0.703 2.703h2.031q1.203 0,1.844 0.547q0.625 0.547,0.625 1.547q0 0.391,-0.094 0.688q-0.094 0.281,-0.297 0.516q-0.375 0.453,-1.094 0.563q0.391 0.094,0.641 0.359q0.141 0.141,0.297 0.406q0.156 0.25,0.375 0.672l0.984 2h-1.047l-0.875-1.844q-0.188-0.406,-0.359-0.656q-0.172-0.25,-0.313-0.359q-0.156-0.109,-0.359-0.156q-0.203-0.063,-0.438-0.063h-0.938v3.078h-0.984v-7.297Zm2.063 3.406q0.719 0,1.063-0.313q0.344-0.328,0.344-0.969q0-0.641,-0.375-0.969q-0.172-0.156,-0.438-0.25q-0.266-0.094,-0.625-0.094h-1.047v2.594h1.078Z"/>
</symbol>
<symbol id="glyph83" viewBox="0 0 6 13" width="6" height="13">
<path d="M2.859 10.141q-0.531 0,-1.047-0.109q-0.516-0.109,-1.047-0.328v-1.047q0.563 0.344,1.078 0.516q0.484 0.172,1 0.172q0.734 0,1.156-0.328q0.422-0.344,0.422-0.969q0-0.516,-0.281-0.813q-0.156-0.156,-0.406-0.25q-0.234-0.109,-0.594-0.188l-0.531-0.125q-0.484-0.109,-0.859-0.281q-0.375-0.172,-0.609-0.422q-0.469-0.453,-0.469-1.234q0-1,0.672-1.578q0.313-0.281,0.75-0.422q0.438-0.156,0.984-0.156q0.422 0,0.891 0.094q0.219 0.047,0.469 0.125q0.25 0.063,0.5 0.156v1q-0.234-0.141,-0.453-0.25q-0.219-0.109,-0.438-0.172q-0.453-0.156,-0.906-0.156q-0.703 0,-1.109 0.328q-0.406 0.328,-0.406 0.906q0 0.25,0.063 0.422q0.078 0.156,0.203 0.281q0.281 0.266,0.984 0.422l0.531 0.125q1 0.234,1.484 0.75q0.469 0.5,0.469 1.391q0 0.547,-0.172 0.953q-0.172 0.391,-0.469 0.641q-0.641 0.547,-1.859 0.547Z"/>
</symbol>
<symbol id="glyph86" viewBox="0 0 6 13" width="6" height="13">
<path d="M0.281 2.703h1.016l1.719 6.469l1.703-6.469h1.031l-2.141 7.297h-1.203l-2.125-7.297Z"/>
</symbol>
<symbol id="glyph97" viewBox="0 0 6 13" width="6" height="13">
<path d="M2.484 10.141q-0.797 0,-1.313-0.453q-0.5-0.453,-0.5-1.313q0-0.703,0.328-1.094q0.344-0.406,0.891-0.563q0.563-0.172,1.188-0.172h1.203v-0.141q0-0.703,-0.359-0.969q-0.344-0.281,-0.984-0.281q-0.5 0,-0.984 0.141q-0.469 0.141,-0.891 0.375v-0.891q0.453-0.172,0.906-0.266q0.469-0.109,0.938-0.109q0.5 0,0.953 0.141q0.469 0.125,0.797 0.438q0.344 0.297,0.453 0.813q0.078 0.359,0.078 1.078v1.125q0 0.453,0.047 1.016q0.047 0.547,0.234 0.984h-0.891q-0.094-0.188,-0.141-0.406q-0.047-0.219,-0.078-0.422q-0.281 0.484,-0.797 0.734q-0.516 0.234,-1.078 0.234Zm0.219-0.75q0.563 0,0.906-0.266q0.344-0.281,0.5-0.719q0.172-0.453,0.172-0.953v-0.203h-1.141q-0.375 0,-0.75 0.094q-0.359 0.078,-0.594 0.328q-0.234 0.234,-0.234 0.688q0 0.516,0.313 0.781q0.328 0.25,0.828 0.25Z"/>
</symbol>
<symbol id="glyph99" viewBox="0 0 6 13" width="6" height="13">
<path d="M3.438 10.141q-0.859 0,-1.453-0.359q-0.578-0.375,-0.891-1.016q-0.297-0.656,-0.297-1.5q0-0.844,0.297-1.484q0.313-0.656,0.906-1.016q0.594-0.359,1.469-0.359q0.453 0,0.813 0.109q0.375 0.094,0.75 0.297v0.953q-0.344-0.313,-0.703-0.453q-0.344-0.156,-0.781-0.156q-0.672 0,-1.063 0.297q-0.391 0.281,-0.563 0.766q-0.172 0.469,-0.172 1.047q0 0.578,0.172 1.063q0.172 0.484,0.563 0.766q0.391 0.281,1.047 0.281q0.438 0,0.797-0.141q0.375-0.141,0.703-0.453v0.938q-0.703 0.422,-1.594 0.422Z"/>
</symbol>
<symbol id="glyph101" viewBox="0 0 6 13" width="6" height="13">
<path d="M3.313 10.141q-1.266 0,-1.984-0.75q-0.719-0.766,-0.719-2.078q0-0.813,0.281-1.469q0.281-0.672,0.844-1.047q0.578-0.391,1.406-0.391q1.094 0,1.688 0.703q0.609 0.688,0.609 1.938v0.438h-3.891v0.031q0 0.844,0.438 1.359q0.453 0.5,1.344 0.5q0.5 0,0.969-0.156q0.484-0.156,0.922-0.391v0.891q-0.453 0.188,-0.938 0.297q-0.469 0.125,-0.969 0.125Zm1.219-3.359q0-0.453,-0.141-0.813q-0.125-0.375,-0.438-0.594q-0.297-0.219,-0.781-0.219q-0.5 0,-0.844 0.219q-0.328 0.219,-0.516 0.594q-0.188 0.359,-0.234 0.813h2.953Z"/>
</symbol>
<symbol id="glyph105" viewBox="0 0 6 13" width="6" height="13">
<path d="M2.547 3.547q-0.141 0,-0.141-0.156v-0.844q0-0.141,0.141-0.141h0.703q0.156 0,0.156 0.141v0.844q0 0.156,-0.156 0.156h-0.703Zm1.641 6.5q-0.797 0,-1.25-0.516q-0.438-0.531,-0.438-1.469v-2.828h-1.188v-0.703h2.094v3.531q0 0.594,0.219 0.906q0.234 0.313,0.656 0.313h1.047v0.766h-1.141Z"/>
</symbol>
<symbol id="glyph107" viewBox="0 0 6 13" width="6" height="13">
<path d="M1.109 2.406h0.922v4.391l2.359-2.266h1.094l-2.156 2.063l2.5 3.406h-1.109l-2.016-2.828l-0.672 0.641v2.188h-0.922v-7.594Z"/>
</symbol>
<symbol id="glyph108" viewBox="0 0 6 13" width="6" height="13">
<path d="M4.016 10.047q-0.813 0,-1.266-0.516q-0.438-0.531,-0.438-1.469v-4.953h-1.438v-0.703h2.344v5.656q0 0.594,0.219 0.906q0.234 0.313,0.656 0.313h1.047v0.766h-1.125Z"/>
</symbol>
<symbol id="glyph109" viewBox="0 0 6 13" width="6" height="13">
<path d="M0.531 4.531h0.734l0.078 0.469q0.344-0.594,0.984-0.594q0.703 0,0.969 0.688q0.344-0.688,1.047-0.688q0.672 0,0.938 0.484q0.266 0.516,0.266 1.938v3.172h-0.828v-3.125q0-0.625,-0.031-0.953q-0.031-0.344,-0.094-0.5q-0.125-0.266,-0.484-0.266q-0.375 0,-0.516 0.281q-0.078 0.172,-0.125 0.5q-0.031 0.328,-0.031 0.938v3.125h-0.813v-3.125q0-0.594,-0.047-0.938q-0.031-0.359,-0.094-0.516q-0.141-0.266,-0.5-0.266q-0.359 0,-0.484 0.281q-0.078 0.172,-0.125 0.516q-0.031 0.328,-0.031 0.922v3.125h-0.813v-5.469Z"/>
</symbol>
<symbol id="glyph110" viewBox="0 0 6 13" width="6" height="13">
<path d="M0.953 4.531h0.813l0.078 0.813q0.5-0.938,1.609-0.938q1.672 0,1.672 2.203v3.391h-0.891v-3.391q0-0.734,-0.266-1.078q-0.25-0.344,-0.797-0.344q-0.625 0,-0.984 0.453q-0.344 0.438,-0.344 1.266v3.094h-0.891v-5.469Z"/>
</symbol>
<symbol id="glyph111" viewBox="0 0 6 13" width="6" height="13">
<path d="M3.016 10.141q-1.141 0,-1.75-0.734q-0.594-0.75,-0.594-2.125q0-1.391,0.594-2.125q0.609-0.75,1.75-0.75q1.125 0,1.734 0.734q0.609 0.734,0.609 2.141q0 1.391,-0.609 2.125q-0.594 0.734,-1.734 0.734Zm0-0.766q0.672 0,1.031-0.547q0.359-0.547,0.359-1.563q0-1.016,-0.359-1.563q-0.359-0.547,-1.031-0.547q-0.672 0,-1.031 0.547q-0.359 0.547,-0.359 1.563q0 1.016,0.359 1.563q0.359 0.547,1.031 0.547Z"/>
</symbol>
<symbol id="glyph112" viewBox="0 0 6 13" width="6" height="13">
<path d="M0.922 4.531h0.828l0.078 0.703q0.469-0.828,1.469-0.828q0.984 0,1.547 0.766q0.563 0.766,0.563 2.094q0 1.328,-0.578 2.109q-0.563 0.766,-1.531 0.766q-1.016 0,-1.469-0.828v2.766h-0.906v-7.547Zm2.266 4.844q1.281 0,1.281-2.109q0-2.109,-1.281-2.109q-0.656 0,-1.016 0.547q-0.344 0.547,-0.344 1.563q0 1.016,0.344 1.563q0.359 0.547,1.016 0.547Z"/>
</symbol>
<symbol id="glyph115" viewBox="0 0 6 13" width="6" height="13">
<path d="M2.875 10.141q-0.781 0,-1.828-0.344v-0.922q1.016 0.516,1.813 0.516q0.578 0,0.922-0.234q0.344-0.25,0.344-0.641q0-0.359,-0.297-0.563q-0.281-0.219,-0.906-0.344l-0.375-0.078q-0.766-0.156,-1.125-0.516q-0.359-0.359,-0.359-0.984q0-0.781,0.531-1.203q0.547-0.422,1.531-0.422q0.844 0,1.625 0.313v0.875q-0.766-0.438,-1.594-0.438q-1.188 0,-1.188 0.797q0 0.266,0.094 0.422q0.109 0.156,0.391 0.266q0.297 0.094,0.859 0.203l0.359 0.078q1.359 0.266,1.359 1.469q0 0.813,-0.578 1.281q-0.578 0.469,-1.578 0.469Z"/>
</symbol>
<symbol id="glyph116" viewBox="0 0 6 13" width="6" height="13">
<path d="M3.938 10.016q-1 0,-1.422-0.406q-0.422-0.406,-0.422-1.391v-2.984h-1.453v-0.703h1.453v-1.438l0.906-0.391v1.828h2.047v0.703h-2.047v2.984q0 0.594,0.219 0.844q0.234 0.234,0.813 0.234h1.016v0.719h-1.109Z"/>
</symbol>
<symbol id="glyph120" viewBox="0 0 6 13" width="6" height="13">
<path d="M2.516 7.141l-1.953-2.609h1l1.453 1.984l1.438-1.984h1l-1.953 2.609l2.156 2.859h-1.047l-1.594-2.188l-1.609 2.188h-1.031l2.141-2.859Z"/>
</symbol>
<symbol id="glyph121" viewBox="0 0 6 13" width="6" height="13">
<path d="M0.906 11.328h0.531q0.391 0,0.609-0.219q0.234-0.25,0.578-1.203l-2.109-5.375h0.938l1.625 4.281l1.594-4.281h0.953l-1.438 3.703q-0.172 0.453,-0.297 0.781q-0.031 0.094,-0.063 0.156q-0.016 0.047,-0.047 0.141q-0.031 0.078,-0.109 0.281l-0.047 0.156q-0.203 0.531,-0.375 0.922q-0.156 0.406,-0.281 0.625q-0.438 0.781,-1.344 0.781h-0.719v-0.75Z"/>
</symbol>
</defs>
<rect x="0" y="0" width="120" height="25" fill="transparent"/>
<g opacity="0">
<animate attributeName="opacity" id="line0" begin="500ms;line2.end" values="1;1;0" dur="6640ms" keyTimes="0;0.849;1"/>
<animateTransform attributeName="transform" begin="line0.begin" type="translate" values="0 0;0 0;0 -13" dur="6640ms" keyTimes="0;0.849;1"/>
<g>
<animateTransform attributeName="transform" begin="line0.begin" type="translate" values="0 0;0 0;0 1.2;0 0;0 0;-0.333 1.2;0 0;0 0;0 1;0 0;0 0;0.667 1;0 0;0 0;0.333 0.6;0 0;0 0;-0.667 0.6;0 0;0 0;0 1;0 0;0 0;-0.333 1;0 0;0 0;-0.333 1;0 0;0 0;-0.333 0.6;0 0;0 0;-0.333 0.6;0 0;0 0;0.667 1.2;0 0;0 0;0 1.2;0 0;0 0;-1.2 1.4;0 0;0 0" dur="6640ms" keyTimes="0;0;0;0.015;0.05;0.05;0.065;0.099;0.099;0.114;0.154;0.154;0.169;0.247;0.247;0.262;0.343;0.343;0.358;0.373;0.373;0.389;0.417;0.417;0.432;0.47;0.47;0.485;0.562;0.562;0.577;0.622;0.622;0.637;0.663;0.663;0.678;0.694;0.694;0.709;0.774;0.774;0.789;1"/>
<use href="#glyph79" x="6" y="6" fill="#c9d1d9">
<animate attributeName="fill" begin="line0.begin" values="transparent;transparent;#00f2fe;#c9d1d9;#c9d1d9" dur="6640ms" keyTimes="0;0;0;0.151;1"/>
<animate attributeName="stroke" begin="line0.begin" values="transparent;transparent;#00f2fe;#c9d1d9;#c9d1d9" dur="6640ms" keyTimes="0;0;0;0.151;1"/>
<animate attributeName="stroke-width" begin="line0.begin" values="0;0;0.7;0;0" dur="6640ms" keyTimes="0;0;0;0.151;1"/>
</use>
<use href="#glyph112" x="12" y="6" fill="#c9d1d9">
<animate attributeName="fill" begin="line0.begin" values="transparent;transparent;#00f2fe;#c9d1d9;#c9d1d9" dur="6640ms" keyTimes="0;0.05;0.05;0.2;1"/>
<animate attributeName="stroke" begin="line0.begin" values="transparent;transparent;#00f2fe;#c9d1d9;#c9d1d9" dur="6640ms" keyTimes="0;0.05;0.05;0.2;1"/>
<animate attributeName="stroke-width" begin="line0.begin" values="0;0;0.7;0;0" dur="6640ms" keyTimes="0;0.05;0.05;0.2;1"/>
</use>
<use href="#glyph101" x="18" y="6" fill="#c9d1d9">
<animate attributeName="fill" begin="line0.begin" values="transparent;transparent;#00f2fe;#c9d1d9;#c9d1d9" dur="6640ms" keyTimes="0;0.099;0.099;0.25;1"/>
<animate attributeName="stroke" begin="line0.begin" values="transparent;transparent;#00f2fe;#c9d1d9;#c9d1d9" dur="6640ms" keyTimes="0;0.099;0.099;0.25;1"/>
<animate attributeName="stroke-width" begin="line0.begin" values="0;0;0.7;0;0" dur="6640ms" keyTimes="0;0.099;0.099;0.25;1"/>
</use>
<use href="#glyph110" x="24" y="6" fill="#c9d1d9">
<animate attributeName="fill" begin="line0.begin" values="transparent;transparent;#00f2fe;#c9d1d9;#c9d1d9" dur="6640ms" keyTimes="0;0.154;0.154;0.304;1"/>
<animate attributeName="stroke" begin="line0.begin" values="transparent;transparent;#00f2fe;#c9d1d9;#c9d1d9" dur="6640ms" keyTimes="0;0.154;0.154;0.304;1"/>
<animate attributeName="stroke-width" begin="line0.begin" values="0;0;0.7;0;0" dur="6640ms" keyTimes="0;0.154;0.154;0.304;1"/>
</use>
<use href="#glyph32" x="30" y="6" fill="#c9d1d9">
<animate attributeName="fill" begin="line0.begin" values="transparent;transparent;#00f2fe;#c9d1d9;#c9d1d9" dur="6640ms" keyTimes="0;0.247;0.247;0.398;1"/>
<animate attributeName="opacity" begin="line0.begin" values="0;0;1;0;0" dur="6640ms" keyTimes="0;0.247;0.247;0.398;1"/>
</use>
<use href="#glyph86" x="36" y="6" fill="#c9d1d9">
<animate attributeName="fill" begin="line0.begin" values="transparent;transparent;#00f2fe;#c9d1d9;#c9d1d9" dur="6640ms" keyTimes="0;0.343;0.343;0.494;1"/>
<animate attributeName="stroke" begin="line0.begin" values="transparent;transparent;#00f2fe;#c9d1d9;#c9d1d9" dur="6640ms" keyTimes="0;0.343;0.343;0.494;1"/>
<animate attributeName="stroke-width" begin="line0.begin" values="0;0;0.7;0;0" dur="6640ms" keyTimes="0;0.343;0.343;0.494;1"/>
</use>
<use href="#glyph101" x="42" y="6" fill="#c9d1d9">
<animate attributeName="fill" begin="line0.begin" values="transparent;transparent;#00f2fe;#c9d1d9;#c9d1d9" dur="6640ms" keyTimes="0;0.373;0.373;0.524;1"/>
<animate attributeName="stroke" begin="line0.begin" values="transparent;transparent;#00f2fe;#c9d1d9;#c9d1d9" dur="6640ms" keyTimes="0;0.373;0.373;0.524;1"/>
<animate attributeName="stroke-width" begin="line0.begin" values="0;0;0.7;0;0" dur="6640ms" keyTimes="0;0.373;0.373;0.524;1"/>
</use>
<use href="#glyph120" x="48" y="6" fill="#c9d1d9">
<animate attributeName="fill" begin="line0.begin" values="transparent;transparent;#00f2fe;#c9d1d9;#c9d1d9" dur="6640ms" keyTimes="0;0.417;0.417;0.568;1"/>
<animate attributeName="stroke" begin="line0.begin" values="transparent;transparent;#00f2fe;#c9d1d9;#c9d1d9" dur="6640ms" keyTimes="0;0.417;0.417;0.568;1"/>
<animate attributeName="stroke-width" begin="line0.begin" values="0;0;0.7;0;0" dur="6640ms" keyTimes="0;0.417;0.417;0.568;1"/>
</use>
<use href="#glyph97" x="54" y="6" fill="#c9d1d9">
<animate attributeName="fill" begin="line0.begin" values="transparent;transparent;#00f2fe;#c9d1d9;#c9d1d9" dur="6640ms" keyTimes="0;0.47;0.47;0.62;1"/>
<animate attributeName="stroke" begin="line0.begin" values="transparent;transparent;#00f2fe;#c9d1d9;#c9d1d9" dur="6640ms" keyTimes="0;0.47;0.47;0.62;1"/>
<animate attributeName="stroke-width" begin="line0.begin" values="0;0;0.7;0;0" dur="6640ms" keyTimes="0;0.47;0.47;0.62;1"/>
</use>
<use href="#glyph82" x="60" y="6" fill="#c9d1d9">
<animate attributeName="fill" begin="line0.begin" values="transparent;transparent;#00f2fe;#c9d1d9;#c9d1d9" dur="6640ms" keyTimes="0;0.562;0.562;0.712;1"/>
<animate attributeName="stroke" begin="line0.begin" values="transparent;transparent;#00f2fe;#c9d1d9;#c9d1d9" dur="6640ms" keyTimes="0;0.562;0.562;0.712;1"/>
<animate attributeName="stroke-width" begin="line0.begin" values="0;0;0.7;0;0" dur="6640ms" keyTimes="0;0.562;0.562;0.712;1"/>
</use>
<use href="#glyph101" x="66" y="6" fill="#c9d1d9">
<animate attributeName="fill" begin="line0.begin" values="transparent;transparent;#00f2fe;#c9d1d9;#c9d1d9" dur="6640ms" keyTimes="0;0.622;0.622;0.773;1"/>
<animate attributeName="stroke" begin="line0.begin" values="transparent;transparent;#00f2fe;#c9d1d9;#c9d1d9" dur="6640ms" keyTimes="0;0.622;0.622;0.773;1"/>
<animate attributeName="stroke-width" begin="line0.begin" values="0;0;0.7;0;0" dur="6640ms" keyTimes="0;0.622;0.622;0.773;1"/>
</use>
<use href="#glyph110" x="72" y="6" fill="#c9d1d9">
<animate attributeName="fill" begin="line0.begin" values="transparent;transparent;#00f2fe;#c9d1d9;#c9d1d9" dur="6640ms" keyTimes="0;0.663;0.663;0.813;1"/>
<animate attributeName="stroke" begin="line0.begin" values="transparent;transparent;#00f2fe;#c9d1d9;#c9d1d9" dur="6640ms" keyTimes="0;0.663;0.663;0.813;1"/>
<animate attributeName="stroke-width" begin="line0.begin" values="0;0;0.7;0;0" dur="6640ms" keyTimes="0;0.663;0.663;0.813;1"/>
</use>
<use href="#glyph116" x="78" y="6" fill="#c9d1d9">
<animate attributeName="fill" begin="line0.begin" values="transparent;transparent;#00f2fe;#c9d1d9;#c9d1d9" dur="6640ms" keyTimes="0;0.694;0.694;0.845;1"/>
<animate attributeName="stroke" begin="line0.begin" values="transparent;transparent;#00f2fe;#c9d1d9;#c9d1d9" dur="6640ms" keyTimes="0;0.694;0.694;0.845;1"/>
<animate attributeName="stroke-width" begin="line0.begin" values="0;0;0.7;0;0" dur="6640ms" keyTimes="0;0.694;0.694;0.845;1"/>
</use>
<use href="#glyph10" x="84" y="6" fill="#c9d1d9">
<animate attributeName="fill" begin="line0.begin" values="transparent;transparent;#00f2fe;#c9d1d9;#c9d1d9" dur="6640ms" keyTimes="0;0.774;0.774;0.925;1"/>
<animate attributeName="opacity" begin="line0.begin" values="0;0;1;0;0" dur="6640ms" keyTimes="0;0.774;0.774;0.925;1"/>
</use>
</g>
</g>
<g opacity="0">
<animate attributeName="opacity" id="line1" begin="line0.end" values="1;1;0" dur="8070ms" keyTimes="0;0.876;1"/>
<animateTransform attributeName="transform" begin="line1.begin" type="translate" values="0 0;0 0;0 -13" dur="8070ms" keyTimes="0;0.876;1"/>
<g>
<animateTransform attributeName="transform" begin="line1.begin" type="translate" values="0 0;0 0;0 1;0 0;0 0;0.333 1;0 0;0 0;0 0.6;0 0;0 0;-0.333 1.2;0 0;0 0;0 1;0 0;0 0;0.333 1.2;0 0;0 0;0 1.2;0 0;0 0;-0.333 1.2;0 0;0 0;0.667 1.2;0 0;0 0;0 0.6;0 0;0 0;0 0.6;0 0;0 0;-0.333 1.2;0 0;0 0;0 1.2;0 0;0 0;-0.333 1.2;0 0;0 0;0 1.2;0 0;0 0;0.333 1.2;0 0;0 0;0.333 1;0 0;0 0;-1.2 1.4;0 0;0 0" dur="8070ms" keyTimes="0;0;0;0.012;0.029;0.029;0.041;0.069;0.069;0.082;0.094;0.094;0.107;0.13;0.13;0.143;0.156;0.156;0.169;0.227;0.227;0.239;0.31;0.31;0.322;0.343;0.343;0.356;0.373;0.373;0.385;0.406;0.406;0.419;0.492;0.492;0.504;0.569;0.569;0.581;0.608;0.608;0.621;0.646;0.646;0.658;0.695;0.695;0.708;0.729;0.729;0.741;0.814;0.814;0.827;1"/>
<use href="#glyph68" x="6" y="6" fill="#c9d1d9">
<animate attributeName="fill" begin="line1.begin" values="transparent;transparent;#00f2fe;#c9d1d9;#c9d1d9" dur="8070ms" keyTimes="0;0;0;0.124;1"/>
<animate attributeName="stroke" begin="line1.begin" values="transparent;transparent;#00f2fe;#c9d1d9;#c9d1d9" dur="8070ms" keyTimes="0;0;0;0.124;1"/>
<animate attributeName="stroke-width" begin="line1.begin" values="0;0;0.7;0;0" dur="8070ms" keyTimes="0;0;0;0.124;1"/>
</use>
<use href="#glyph101" x="12" y="6" fill="#c9d1d9">
<animate attributeName="fill" begin="line1.begin" values="transparent;transparent;#00f2fe;#c9d1d9;#c9d1d9" dur="8070ms" keyTimes="0;0.029;0.029;0.152;1"/>
<animate attributeName="stroke" begin="line1.begin" values="transparent;transparent;#00f2fe;#c9d1d9;#c9d1d9" dur="8070ms" keyTimes="0;0.029;0.029;0.152;1"/>
<animate attributeName="stroke-width" begin="line1.begin" values="0;0;0.7;0;0" dur="8070ms" keyTimes="0;0.029;0.029;0.152;1"/>
</use>
<use href="#glyph112" x="18" y="6" fill="#c9d1d9">
<animate attributeName="fill" begin="line1.begin" values="transparent;transparent;#00f2fe;#c9d1d9;#c9d1d9" dur="8070ms" keyTimes="0;0.069;0.069;0.193;1"/>
<animate attributeName="stroke" begin="line1.begin" values="transparent;transparent;#00f2fe;#c9d1d9;#c9d1d9" dur="8070ms" keyTimes="0;0.069;0.069;0.193;1"/>
<animate attributeName="stroke-width" begin="line1.begin" values="0;0;0.7;0;0" dur="8070ms" keyTimes="0;0.069;0.069;0.193;1"/>
</use>
<use href="#glyph108" x="24" y="6" fill="#c9d1d9">
<animate attributeName="fill" begin="line1.begin" values="transparent;transparent;#00f2fe;#c9d1d9;#c9d1d9" dur="8070ms" keyTimes="0;0.094;0.094;0.218;1"/>
<animate attributeName="stroke" begin="line1.begin" values="transparent;transparent;#00f2fe;#c9d1d9;#c9d1d9" dur="8070ms" keyTimes="0;0.094;0.094;0.218;1"/>
<animate attributeName="stroke-width" begin="line1.begin" values="0;0;0.7;0;0" dur="8070ms" keyTimes="0;0.094;0.094;0.218;1"/>
</use>
<use href="#glyph111" x="30" y="6" fill="#c9d1d9">
<animate attributeName="fill" begin="line1.begin" values="transparent;transparent;#00f2fe;#c9d1d9;#c9d1d9" dur="8070ms" keyTimes="0;0.13;0.13;0.254;1"/>
<animate attributeName="stroke" begin="line1.begin" values="transparent;transparent;#00f2fe;#c9d1d9;#c9d1d9" dur="8070ms" keyTimes="0;0.13;0.13;0.254;1"/>
<animate attributeName="stroke-width" begin="line1.begin" values="0;0;0.7;0;0" dur="8070ms" keyTimes="0;0.13;0.13;0.254;1"/>
</use>
<use href="#glyph121" x="36" y="6" fill="#c9d1d9">
<animate attributeName="fill" begin="line1.begin" values="transparent;transparent;#00f2fe;#c9d1d9;#c9d1d9" dur="8070ms" keyTimes="0;0.156;0.156;0.28;1"/>
<animate attributeName="stroke" begin="line1.begin" values="transparent;transparent;#00f2fe;#c9d1d9;#c9d1d9" dur="8070ms" keyTimes="0;0.156;0.156;0.28;1"/>
<animate attributeName="stroke-width" begin="line1.begin" values="0;0;0.7;0;0" dur="8070ms" keyTimes="0;0.156;0.156;0.28;1"/>
</use>
<use href="#glyph32" x="42" y="6" fill="#c9d1d9">
<animate attributeName="fill" begin="line1.begin" values="transparent;transparent;#00f2fe;#c9d1d9;#c9d1d9" dur="8070ms" keyTimes="0;0.227;0.227;0.351;1"/>
<animate attributeName="opacity" begin="line1.begin" values="0;0;1;0;0" dur="8070ms" keyTimes="0;0.227;0.227;0.351;1"/>
</use>
<use href="#glyph77" x="48" y="6" fill="#c9d1d9">
<animate attributeName="fill" begin="line1.begin" values="transparent;transparent;#00f2fe;#c9d1d9;#c9d1d9" dur="8070ms" keyTimes="0;0.31;0.31;0.434;1"/>
<animate attributeName="stroke" begin="line1.begin" values="transparent;transparent;#00f2fe;#c9d1d9;#c9d1d9" dur="8070ms" keyTimes="0;0.31;0.31;0.434;1"/>
<animate attributeName="stroke-width" begin="line1.begin" values="0;0;0.7;0;0" dur="8070ms" keyTimes="0;0.31;0.31;0.434;1"/>
</use>
<use href="#glyph69" x="54" y="6" fill="#c9d1d9">
<animate attributeName="fill" begin="line1.begin" values="transparent;transparent;#00f2fe;#c9d1d9;#c9d1d9" dur="8070ms" keyTimes="0;0.343;0.343;0.467;1"/>
<animate attributeName="stroke" begin="line1.begin" values="transparent;transparent;#00f2fe;#c9d1d9;#c9d1d9" dur="8070ms" keyTimes="0;0.343;0.343;0.467;1"/>
<animate attributeName="stroke-width" begin="line1.begin" values="0;0;0.7;0;0" dur="8070ms" keyTimes="0;0.343;0.343;0.467;1"/>
</use>
<use href="#glyph82" x="60" y="6" fill="#c9d1d9">
<animate attributeName="fill" begin="line1.begin" values="transparent;transparent;#00f2fe;#c9d1d9;#c9d1d9" dur="8070ms" keyTimes="0;0.373;0.373;0.497;1"/>
<animate attributeName="stroke" begin="line1.begin" values="transparent;transparent;#00f2fe;#c9d1d9;#c9d1d9" dur="8070ms" keyTimes="0;0.373;0.373;0.497;1"/>
<animate attributeName="stroke-width" begin="line1.begin" values="0;0;0.7;0;0" dur="8070ms" keyTimes="0;0.373;0.373;0.497;1"/>
</use>
<use href="#glyph78" x="66" y="6" fill="#c9d1d9">
<animate attributeName="fill" begin="line1.begin" values="transparent;transparent;#00f2fe;#c9d1d9;#c9d1d9" dur="8070ms" keyTimes="0;0.406;0.406;0.53;1"/>
<animate attributeName="stroke" begin="line1.begin" values="transparent;transparent;#00f2fe;#c9d1d9;#c9d1d9" dur="8070ms" keyTimes="0;0.406;0.406;0.53;1"/>
<animate attributeName="stroke-width" begin="line1.begin" values="0;0;0.7;0;0" dur="8070ms" keyTimes="0;0.406;0.406;0.53;1"/>
</use>
<use href="#glyph32" x="72" y="6" fill="#c9d1d9">
<animate attributeName="fill" begin="line1.begin" values="transparent;transparent;#00f2fe;#c9d1d9;#c9d1d9" dur="8070ms" keyTimes="0;0.492;0.492;0.616;1"/>
<animate attributeName="opacity" begin="line1.begin" values="0;0;1;0;0" dur="8070ms" keyTimes="0;0.492;0.492;0.616;1"/>
</use>
<use href="#glyph115" x="78" y="6" fill="#c9d1d9">
<animate attributeName="fill" begin="line1.begin" values="transparent;transparent;#00f2fe;#c9d1d9;#c9d1d9" dur="8070ms" keyTimes="0;0.569;0.569;0.693;1"/>
<animate attributeName="stroke" begin="line1.begin" values="transparent;transparent;#00f2fe;#c9d1d9;#c9d1d9" dur="8070ms" keyTimes="0;0.569;0.569;0.693;1"/>
<animate attributeName="stroke-width" begin="line1.begin" values="0;0;0.7;0;0" dur="8070ms" keyTimes="0;0.569;0.569;0.693;1"/>
</use>
<use href="#glyph116" x="84" y="6" fill="#c9d1d9">
<animate attributeName="fill" begin="line1.begin" values="transparent;transparent;#00f2fe;#c9d1d9;#c9d1d9" dur="8070ms" keyTimes="0;0.608;0.608;0.732;1"/>
<animate attributeName="stroke" begin="line1.begin" values="transparent;transparent;#00f2fe;#c9d1d9;#c9d1d9" dur="8070ms" keyTimes="0;0.608;0.608;0.732;1"/>
<animate attributeName="stroke-width" begin="line1.begin" values="0;0;0.7;0;0" dur="8070ms" keyTimes="0;0.608;0.608;0.732;1"/>
</use>
<use href="#glyph97" x="90" y="6" fill="#c9d1d9">
<animate attributeName="fill" begin="line1.begin" values="transparent;transparent;#00f2fe;#c9d1d9;#c9d1d9" dur="8070ms" keyTimes="0;0.646;0.646;0.77;1"/>
<animate attributeName="stroke" begin="line1.begin" values="transparent;transparent;#00f2fe;#c9d1d9;#c9d1d9" dur="8070ms" keyTimes="0;0.646;0.646;0.77;1"/>
<animate attributeName="stroke-width" begin="line1.begin" values="0;0;0.7;0;0" dur="8070ms" keyTimes="0;0.646;0.646;0.77;1"/>
</use>
<use href="#glyph99" x="96" y="6" fill="#c9d1d9">
<animate attributeName="fill" begin="line1.begin" values="transparent;transparent;#00f2fe;#c9d1d9;#c9d1d9" dur="8070ms" keyTimes="0;0.695;0.695;0.819;1"/>
<animate attributeName="stroke" begin="line1.begin" values="transparent;transparent;#00f2fe;#c9d1d9;#c9d1d9" dur="8070ms" keyTimes="0;0.695;0.695;0.819;1"/>
<animate attributeName="stroke-width" begin="line1.begin" values="0;0;0.7;0;0" dur="8070ms" keyTimes="0;0.695;0.695;0.819;1"/>
</use>
<use href="#glyph107" x="102" y="6" fill="#c9d1d9">
<animate attributeName="fill" begin="line1.begin" values="transparent;transparent;#00f2fe;#c9d1d9;#c9d1d9" dur="8070ms" keyTimes="0;0.729;0.729;0.853;1"/>
<animate attributeName="stroke" begin="line1.begin" values="transparent;transparent;#00f2fe;#c9d1d9;#c9d1d9" dur="8070ms" keyTimes="0;0.729;0.729;0.853;1"/>
<animate attributeName="stroke-width" begin="line1.begin" values="0;0;0.7;0;0" dur="8070ms" keyTimes="0;0.729;0.729;0.853;1"/>
</use>
<use href="#glyph10" x="108" y="6" fill="#c9d1d9">
<animate attributeName="fill" begin="line1.begin" values="transparent;transparent;#00f2fe;#c9d1d9;#c9d1d9" dur="8070ms" keyTimes="0;0.814;0.814;0.938;1"/>
<animate attributeName="opacity" begin="line1.begin" values="0;0;1;0;0" dur="8070ms" keyTimes="0;0.814;0.814;0.938;1"/>
</use>
</g>
</g>
<g opacity="0">
<animate attributeName="opacity" id="line2" begin="line1.end" values="1;1;0" dur="6570ms" keyTimes="0;0.848;1"/>
<animateTransform attributeName="transform" begin="line2.begin" type="translate" values="0 0;0 0;0 -13" dur="6570ms" keyTimes="0;0.848;1"/>
<g>
<animateTransform attributeName="transform" begin="line2.begin" type="translate" values="0 0;0 0;-0.333 1.2;0 0;0 0;-0.333 1.2;0 0;0 0;0 1;0 0;0 0;-0.333 0.8;0 0;0 0;0 0.8;0 0;0 0;0.667 0.6;0 0;0 0;0.333 1;0 0;0 0;0 1.2;0 0;0 0;0 0.6;0 0;0 0;0 1;0 0;0 0;0 0.6;0 0;0 0;-0.667 0.6;0 0;0 0;-0.333 0.8;0 0;0 0;0.333 0.8;0 0;0 0;-1.2 1.4;0 0;0 0" dur="6570ms" keyTimes="0;0;0;0.015;0.052;0.052;0.067;0.099;0.099;0.114;0.145;0.145;0.16;0.198;0.198;0.213;0.236;0.236;0.251;0.277;0.277;0.292;0.362;0.362;0.377;0.449;0.449;0.464;0.486;0.486;0.501;0.542;0.542;0.557;0.589;0.589;0.604;0.63;0.63;0.645;0.686;0.686;0.702;0.772;0.772;0.787;1"/>
<use href="#glyph83" x="6" y="6" fill="#c9d1d9">
<animate attributeName="fill" begin="line2.begin" values="transparent;transparent;#00f2fe;#c9d1d9;#c9d1d9" dur="6570ms" keyTimes="0;0;0;0.152;1"/>
<animate attributeName="stroke" begin="line2.begin" values="transparent;transparent;#00f2fe;#c9d1d9;#c9d1d9" dur="6570ms" keyTimes="0;0;0;0.152;1"/>
<animate attributeName="stroke-width" begin="line2.begin" values="0;0;0.7;0;0" dur="6570ms" keyTimes="0;0;0;0.152;1"/>
</use>
<use href="#glyph121" x="12" y="6" fill="#c9d1d9">
<animate attributeName="fill" begin="line2.begin" values="transparent;transparent;#00f2fe;#c9d1d9;#c9d1d9" dur="6570ms" keyTimes="0;0.052;0.052;0.204;1"/>
<animate attributeName="stroke" begin="line2.begin" values="transparent;transparent;#00f2fe;#c9d1d9;#c9d1d9" dur="6570ms" keyTimes="0;0.052;0.052;0.204;1"/>
<animate attributeName="stroke-width" begin="line2.begin" values="0;0;0.7;0;0" dur="6570ms" keyTimes="0;0.052;0.052;0.204;1"/>
</use>
<use href="#glyph115" x="18" y="6" fill="#c9d1d9">
<animate attributeName="fill" begin="line2.begin" values="transparent;transparent;#00f2fe;#c9d1d9;#c9d1d9" dur="6570ms" keyTimes="0;0.099;0.099;0.251;1"/>
<animate attributeName="stroke" begin="line2.begin" values="transparent;transparent;#00f2fe;#c9d1d9;#c9d1d9" dur="6570ms" keyTimes="0;0.099;0.099;0.251;1"/>
<animate attributeName="stroke-width" begin="line2.begin" values="0;0;0.7;0;0" dur="6570ms" keyTimes="0;0.099;0.099;0.251;1"/>
</use>
<use href="#glyph116" x="24" y="6" fill="#c9d1d9">
<animate attributeName="fill" begin="line2.begin" values="transparent;transparent;#00f2fe;#c9d1d9;#c9d1d9" dur="6570ms" keyTimes="0;0.145;0.145;0.297;1"/>
<animate attributeName="stroke" begin="line2.begin" values="transparent;transparent;#00f2fe;#c9d1d9;#c9d1d9" dur="6570ms" keyTimes="0;0.145;0.145;0.297;1"/>
<animate attributeName="stroke-width" begin="line2.begin" values="0;0;0.7;0;0" dur="6570ms" keyTimes="0;0.145;0.145;0.297;1"/>
</use>
<use href="#glyph101" x="30" y="6" fill="#c9d1d9">
<animate attributeName="fill" begin="line2.begin" values="transparent;transparent;#00f2fe;#c9d1d9;#c9d1d9" dur="6570ms" keyTimes="0;0.198;0.198;0.35;1"/>
<animate attributeName="stroke" begin="line2.begin" values="transparent;transparent;#00f2fe;#c9d1d9;#c9d1d9" dur="6570ms" keyTimes="0;0.198;0.198;0.35;1"/>
<animate attributeName="stroke-width" begin="line2.begin" values="0;0;0.7;0;0" dur="6570ms" keyTimes="0;0.198;0.198;0.35;1"/>
</use>
<use href="#glyph109" x="36" y="6" fill="#c9d1d9">
<animate attributeName="fill" begin="line2.begin" values="transparent;transparent;#00f2fe;#c9d1d9;#c9d1d9" dur="6570ms" keyTimes="0;0.236;0.236;0.388;1"/>
<animate attributeName="stroke" begin="line2.begin" values="transparent;transparent;#00f2fe;#c9d1d9;#c9d1d9" dur="6570ms" keyTimes="0;0.236;0.236;0.388;1"/>
<animate attributeName="stroke-width" begin="line2.begin" values="0;0;0.7;0;0" dur="6570ms" keyTimes="0;0.236;0.236;0.388;1"/>
</use>
<use href="#glyph115" x="42" y="6" fill="#c9d1d9">
<animate attributeName="fill" begin="line2.begin" values="transparent;transparent;#00f2fe;#c9d1d9;#c9d1d9" dur="6570ms" keyTimes="0;0.277;0.277;0.429;1"/>
<animate attributeName="stroke" begin="line2.begin" values="transparent;transparent;#00f2fe;#c9d1d9;#c9d1d9" dur="6570ms" keyTimes="0;0.277;0.277;0.429;1"/>
<animate attributeName="stroke-width" begin="line2.begin" values="0;0;0.7;0;0" dur="6570ms" keyTimes="0;0.277;0.277;0.429;1"/>
</use>
<use href="#glyph32" x="48" y="6" fill="#c9d1d9">
<animate attributeName="fill" begin="line2.begin" values="transparent;transparent;#00f2fe;#c9d1d9;#c9d1d9" dur="6570ms" keyTimes="0;0.362;0.362;0.514;1"/>
<animate attributeName="opacity" begin="line2.begin" values="0;0;1;0;0" dur="6570ms" keyTimes="0;0.362;0.362;0.514;1"/>
</use>
<use href="#glyph111" x="54" y="6" fill="#c9d1d9">
<animate attributeName="fill" begin="line2.begin" values="transparent;transparent;#00f2fe;#c9d1d9;#c9d1d9" dur="6570ms" keyTimes="0;0.449;0.449;0.601;1"/>
<animate attributeName="stroke" begin="line2.begin" values="transparent;transparent;#00f2fe;#c9d1d9;#c9d1d9" dur="6570ms" keyTimes="0;0.449;0.449;0.601;1"/>
<animate attributeName="stroke-width" begin="line2.begin" values="0;0;0.7;0;0" dur="6570ms" keyTimes="0;0.449;0.449;0.601;1"/>
</use>
<use href="#glyph110" x="60" y="6" fill="#c9d1d9">
<animate attributeName="fill" begin="line2.begin" values="transparent;transparent;#00f2fe;#c9d1d9;#c9d1d9" dur="6570ms" keyTimes="0;0.486;0.486;0.638;1"/>
<animate attributeName="stroke" begin="line2.begin" values="transparent;transparent;#00f2fe;#c9d1d9;#c9d1d9" dur="6570ms" keyTimes="0;0.486;0.486;0.638;1"/>
<animate attributeName="stroke-width" begin="line2.begin" values="0;0;0.7;0;0" dur="6570ms" keyTimes="0;0.486;0.486;0.638;1"/>
</use>
<use href="#glyph108" x="66" y="6" fill="#c9d1d9">
<animate attributeName="fill" begin="line2.begin" values="transparent;transparent;#00f2fe;#c9d1d9;#c9d1d9" dur="6570ms" keyTimes="0;0.542;0.542;0.694;1"/>
<animate attributeName="stroke" begin="line2.begin" values="transparent;transparent;#00f2fe;#c9d1d9;#c9d1d9" dur="6570ms" keyTimes="0;0.542;0.542;0.694;1"/>
<animate attributeName="stroke-width" begin="line2.begin" values="0;0;0.7;0;0" dur="6570ms" keyTimes="0;0.542;0.542;0.694;1"/>
</use>
<use href="#glyph105" x="72" y="6" fill="#c9d1d9">
<animate attributeName="fill" begin="line2.begin" values="transparent;transparent;#00f2fe;#c9d1d9;#c9d1d9" dur="6570ms" keyTimes="0;0.589;0.589;0.741;1"/>
<animate attributeName="stroke" begin="line2.begin" values="transparent;transparent;#00f2fe;#c9d1d9;#c9d1d9" dur="6570ms" keyTimes="0;0.589;0.589;0.741;1"/>
<animate attributeName="stroke-width" begin="line2.begin" values="0;0;0.7;0;0" dur="6570ms" keyTimes="0;0.589;0.589;0.741;1"/>
</use>
<use href="#glyph110" x="78" y="6" fill="#c9d1d9">
<animate attributeName="fill" begin="line2.begin" values="transparent;transparent;#00f2fe;#c9d1d9;#c9d1d9" dur="6570ms" keyTimes="0;0.63;0.63;0.782;1"/>
<animate attributeName="stroke" begin="line2.begin" values="transparent;transparent;#00f2fe;#c9d1d9;#c9d1d9" dur="6570ms" keyTimes="0;0.63;0.63;0.782;1"/>
<animate attributeName="stroke-width" begin="line2.begin" values="0;0;0.7;0;0" dur="6570ms" keyTimes="0;0.63;0.63;0.782;1"/>
</use>
<use href="#glyph101" x="84" y="6" fill="#c9d1d9">
<animate attributeName="fill" begin="line2.begin" values="transparent;transparent;#00f2fe;#c9d1d9;#c9d1d9" dur="6570ms" keyTimes="0;0.686;0.686;0.839;1"/>
<animate attributeName="stroke" begin="line2.begin" values="transparent;transparent;#00f2fe;#c9d1d9;#c9d1d9" dur="6570ms" keyTimes="0;0.686;0.686;0.839;1"/>
<animate attributeName="stroke-width" begin="line2.begin" values="0;0;0.7;0;0" dur="6570ms" keyTimes="0;0.686;0.686;0.839;1"/>
</use>
<use href="#glyph10" x="90" y="6" fill="#c9d1d9">
<animate attributeName="fill" begin="line2.begin" values="transparent;transparent;#00f2fe;#c9d1d9;#c9d1d9" dur="6570ms" keyTimes="0;0.772;0.772;0.924;1"/>
<animate attributeName="opacity" begin="line2.begin" values="0;0;1;0;0" dur="6570ms" keyTimes="0;0.772;0.772;0.924;1"/>
</use>
</g>
</g>
</svg>
